<?xml version="1.0" encoding="UTF-8" standalone="no"?>
<!DOCTYPE svg PUBLIC "-//W3C//DTD SVG 1.1//EN"
 "http://www.w3.org/Graphics/SVG/1.1/DTD/svg11.dtd">
<!-- Generated by graphviz version 2.38.0 (20140413.2041)
 -->
<!-- Title: %3 Pages: 1 -->
<svg width="526pt" height="1160pt"
 viewBox="0.00 0.00 525.50 1160.00" xmlns="http://www.w3.org/2000/svg" xmlns:xlink="http://www.w3.org/1999/xlink">
<g id="graph0" class="graph" transform="scale(1 1) rotate(0) translate(4 1156)">
<title>%3</title>
<polygon fill="white" stroke="none" points="-4,4 -4,-1156 521.5,-1156 521.5,4 -4,4"/>
<text text-anchor="middle" x="258.75" y="-22.8" font-family="Times,serif" font-size="14.00">SSH application flow diagram</text>
<text text-anchor="middle" x="258.75" y="-7.8" font-family="Times,serif" font-size="14.00">The purpose of the program is to send files containing device commands as a batch</text>
<!-- import -->
<g id="node1" class="node"><title>import</title>
<path fill="none" stroke="black" d="M386,-1152C386,-1152 306,-1152 306,-1152 300,-1152 294,-1146 294,-1140 294,-1140 294,-1128 294,-1128 294,-1122 300,-1116 306,-1116 306,-1116 386,-1116 386,-1116 392,-1116 398,-1122 398,-1128 398,-1128 398,-1140 398,-1140 398,-1146 392,-1152 386,-1152"/>
<text text-anchor="middle" x="346" y="-1130.3" font-family="Times,serif" font-size="14.00">Import modules</text>
</g>
<!-- source_files -->
<g id="node2" class="node"><title>source_files</title>
<polygon fill="none" stroke="black" points="425,-1079 267,-1079 267,-1043 425,-1043 425,-1079"/>
<text text-anchor="middle" x="346" y="-1057.3" font-family="Times,serif" font-size="14.00">Source configuration files</text>
</g>
<!-- import&#45;&gt;source_files -->
<g id="edge1" class="edge"><title>import&#45;&gt;source_files</title>
<path fill="none" stroke="black" d="M346,-1115.81C346,-1107.79 346,-1098.05 346,-1089.07"/>
<polygon fill="black" stroke="black" points="349.5,-1089.03 346,-1079.03 342.5,-1089.03 349.5,-1089.03"/>
</g>
<!-- source_files_okay -->
<g id="node3" class="node"><title>source_files_okay</title>
<polygon fill="none" stroke="black" points="346,-1006 196.355,-988 346,-970 495.645,-988 346,-1006"/>
<text text-anchor="middle" x="346" y="-984.3" font-family="Times,serif" font-size="14.00">Check that input files exist</text>
</g>
<!-- source_files&#45;&gt;source_files_okay -->
<g id="edge2" class="edge"><title>source_files&#45;&gt;source_files_okay</title>
<path fill="none" stroke="black" d="M346,-1042.81C346,-1034.79 346,-1025.05 346,-1016.07"/>
<polygon fill="black" stroke="black" points="349.5,-1016.03 346,-1006.03 342.5,-1016.03 349.5,-1016.03"/>
</g>
<!-- check_reachability -->
<g id="node4" class="node"><title>check_reachability</title>
<polygon fill="none" stroke="black" points="347,-919 213,-919 213,-883 347,-883 347,-919"/>
<text text-anchor="middle" x="280" y="-897.3" font-family="Times,serif" font-size="14.00">Check IP reachability</text>
</g>
<!-- source_files_okay&#45;&gt;check_reachability -->
<g id="edge3" class="edge"><title>source_files_okay&#45;&gt;check_reachability</title>
<path fill="none" stroke="black" d="M333.895,-971.41C324.313,-959.07 310.739,-941.589 299.611,-927.257"/>
<polygon fill="black" stroke="black" points="302.288,-924.998 293.391,-919.246 296.759,-929.291 302.288,-924.998"/>
<text text-anchor="middle" x="327" y="-940.8" font-family="Times,serif" font-size="14.00">Yes</text>
</g>
<!-- exit -->
<g id="node16" class="node"><title>exit</title>
<polygon fill="none" stroke="black" points="444,-293 266,-293 266,-257 444,-257 444,-293"/>
<text text-anchor="middle" x="355" y="-271.3" font-family="Times,serif" font-size="14.00">Exit and check configuration.</text>
</g>
<!-- source_files_okay&#45;&gt;exit -->
<g id="edge4" class="edge"><title>source_files_okay&#45;&gt;exit</title>
<path fill="none" stroke="black" d="M356.571,-971.143C366.552,-954.611 380,-927.589 380,-902 380,-902 380,-902 380,-361 380,-340.874 373.469,-319.116 367.084,-302.652"/>
<polygon fill="black" stroke="black" points="370.218,-301.072 363.186,-293.147 363.742,-303.728 370.218,-301.072"/>
<text text-anchor="middle" x="388.5" y="-620.8" font-family="Times,serif" font-size="14.00">No</text>
</g>
<!-- report_reachability -->
<g id="node5" class="node"><title>report_reachability</title>
<polygon fill="none" stroke="black" points="312.5,-846 187.5,-846 187.5,-810 312.5,-810 312.5,-846"/>
<text text-anchor="middle" x="250" y="-824.3" font-family="Times,serif" font-size="14.00">Report reachability.</text>
</g>
<!-- check_reachability&#45;&gt;report_reachability -->
<g id="edge5" class="edge"><title>check_reachability&#45;&gt;report_reachability</title>
<path fill="none" stroke="black" d="M272.738,-882.813C269.274,-874.615 265.052,-864.623 261.191,-855.485"/>
<polygon fill="black" stroke="black" points="264.312,-853.878 257.195,-846.029 257.863,-856.603 264.312,-853.878"/>
</g>
<!-- ip_prompt_continue -->
<g id="node6" class="node"><title>ip_prompt_continue</title>
<polygon fill="none" stroke="black" points="203,-773 54.193,-755 203,-737 351.807,-755 203,-773"/>
<text text-anchor="middle" x="203" y="-751.3" font-family="Times,serif" font-size="14.00">Prompt user, continue/quit</text>
</g>
<!-- report_reachability&#45;&gt;ip_prompt_continue -->
<g id="edge6" class="edge"><title>report_reachability&#45;&gt;ip_prompt_continue</title>
<path fill="none" stroke="black" d="M238.623,-809.813C232.799,-801.015 225.607,-790.15 219.213,-780.492"/>
<polygon fill="black" stroke="black" points="222.067,-778.462 213.628,-772.056 216.23,-782.326 222.067,-778.462"/>
</g>
<!-- build_threading -->
<g id="node8" class="node"><title>build_threading</title>
<polygon fill="none" stroke="black" points="251.5,-686 150.5,-686 150.5,-650 251.5,-650 251.5,-686"/>
<text text-anchor="middle" x="201" y="-664.3" font-family="Times,serif" font-size="14.00">Build threading</text>
</g>
<!-- ip_prompt_continue&#45;&gt;build_threading -->
<g id="edge7" class="edge"><title>ip_prompt_continue&#45;&gt;build_threading</title>
<path fill="none" stroke="black" d="M202.595,-736.799C202.321,-725.163 201.954,-709.548 201.641,-696.237"/>
<polygon fill="black" stroke="black" points="205.138,-696.09 201.404,-686.175 198.14,-696.255 205.138,-696.09"/>
<text text-anchor="middle" x="228" y="-707.8" font-family="Times,serif" font-size="14.00">Continue</text>
</g>
<!-- ip_prompt_continue&#45;&gt;exit -->
<g id="edge8" class="edge"><title>ip_prompt_continue&#45;&gt;exit</title>
<path fill="none" stroke="black" d="M250.276,-742.589C286.029,-730.811 329,-708.449 329,-669 329,-669 329,-669 329,-361 329,-340.808 335.792,-319.052 342.433,-302.606"/>
<polygon fill="black" stroke="black" points="345.778,-303.684 346.487,-293.113 339.341,-300.935 345.778,-303.684"/>
<text text-anchor="middle" x="340.5" y="-504.3" font-family="Times,serif" font-size="14.00">Exit</text>
</g>
<!-- auth_prompt_continue -->
<g id="node7" class="node"><title>auth_prompt_continue</title>
<polygon fill="none" stroke="black" points="152,-380 3.19299,-362 152,-344 300.807,-362 152,-380"/>
<text text-anchor="middle" x="152" y="-358.3" font-family="Times,serif" font-size="14.00">Prompt user, continue/quit</text>
</g>
<!-- send_device_commands -->
<g id="node12" class="node"><title>send_device_commands</title>
<polygon fill="none" stroke="black" points="248,-293 1.42109e-14,-293 1.42109e-14,-257 248,-257 248,-293"/>
<text text-anchor="middle" x="124" y="-271.3" font-family="Times,serif" font-size="14.00">Send device specific commands or default</text>
</g>
<!-- auth_prompt_continue&#45;&gt;send_device_commands -->
<g id="edge13" class="edge"><title>auth_prompt_continue&#45;&gt;send_device_commands</title>
<path fill="none" stroke="black" d="M146.601,-344.611C142.726,-332.848 137.416,-316.727 132.916,-303.067"/>
<polygon fill="black" stroke="black" points="136.124,-301.617 129.67,-293.214 129.475,-303.807 136.124,-301.617"/>
<text text-anchor="middle" x="165" y="-314.8" font-family="Times,serif" font-size="14.00">Continue</text>
</g>
<!-- auth_prompt_continue&#45;&gt;exit -->
<g id="edge14" class="edge"><title>auth_prompt_continue&#45;&gt;exit</title>
<path fill="none" stroke="black" d="M183.719,-347.719C216.101,-334.16 266.848,-312.911 304.712,-297.056"/>
<polygon fill="black" stroke="black" points="306.17,-300.241 314.042,-293.15 303.466,-293.784 306.17,-300.241"/>
<text text-anchor="middle" x="277.5" y="-314.8" font-family="Times,serif" font-size="14.00">Exit</text>
</g>
<!-- ssh_connection -->
<g id="node9" class="node"><title>ssh_connection</title>
<polygon fill="none" stroke="black" points="263,-599 125,-599 125,-563 263,-563 263,-599"/>
<text text-anchor="middle" x="194" y="-577.3" font-family="Times,serif" font-size="14.00">Build SSH connection</text>
</g>
<!-- build_threading&#45;&gt;ssh_connection -->
<g id="edge9" class="edge"><title>build_threading&#45;&gt;ssh_connection</title>
<path fill="none" stroke="black" d="M199.583,-649.799C198.625,-638.163 197.339,-622.548 196.243,-609.237"/>
<polygon fill="black" stroke="black" points="199.723,-608.854 195.414,-599.175 192.747,-609.429 199.723,-608.854"/>
</g>
<!-- check_authentication -->
<g id="node10" class="node"><title>check_authentication</title>
<polygon fill="none" stroke="black" points="291,-526 75,-526 75,-490 291,-490 291,-526"/>
<text text-anchor="middle" x="183" y="-504.3" font-family="Times,serif" font-size="14.00">Check authentication on each device</text>
</g>
<!-- ssh_connection&#45;&gt;check_authentication -->
<g id="edge10" class="edge"><title>ssh_connection&#45;&gt;check_authentication</title>
<path fill="none" stroke="black" d="M191.337,-562.813C190.094,-554.789 188.585,-545.047 187.194,-536.069"/>
<polygon fill="black" stroke="black" points="190.628,-535.375 185.638,-526.029 183.711,-536.447 190.628,-535.375"/>
</g>
<!-- authentication_report -->
<g id="node11" class="node"><title>authentication_report</title>
<polygon fill="none" stroke="black" points="255,-453 87,-453 87,-417 255,-417 255,-453"/>
<text text-anchor="middle" x="171" y="-431.3" font-family="Times,serif" font-size="14.00">Report authentication status</text>
</g>
<!-- check_authentication&#45;&gt;authentication_report -->
<g id="edge11" class="edge"><title>check_authentication&#45;&gt;authentication_report</title>
<path fill="none" stroke="black" d="M180.095,-489.813C178.739,-481.789 177.093,-472.047 175.575,-463.069"/>
<polygon fill="black" stroke="black" points="178.996,-462.306 173.878,-453.029 172.094,-463.472 178.996,-462.306"/>
</g>
<!-- authentication_report&#45;&gt;auth_prompt_continue -->
<g id="edge12" class="edge"><title>authentication_report&#45;&gt;auth_prompt_continue</title>
<path fill="none" stroke="black" d="M166.401,-416.813C164.198,-408.583 161.512,-398.545 159.059,-389.378"/>
<polygon fill="black" stroke="black" points="162.392,-388.295 156.426,-379.54 155.63,-390.105 162.392,-388.295"/>
</g>
<!-- record_device_output -->
<g id="node13" class="node"><title>record_device_output</title>
<polygon fill="none" stroke="black" points="294.5,-220 145.5,-220 145.5,-184 294.5,-184 294.5,-220"/>
<text text-anchor="middle" x="220" y="-198.3" font-family="Times,serif" font-size="14.00">Log what has been done</text>
</g>
<!-- send_device_commands&#45;&gt;record_device_output -->
<g id="edge15" class="edge"><title>send_device_commands&#45;&gt;record_device_output</title>
<path fill="none" stroke="black" d="M147.239,-256.813C159.738,-247.569 175.322,-236.043 188.858,-226.032"/>
<polygon fill="black" stroke="black" points="191.016,-228.789 196.975,-220.029 186.854,-223.161 191.016,-228.789"/>
</g>
<!-- parse_device_command_error -->
<g id="node14" class="node"><title>parse_device_command_error</title>
<polygon fill="none" stroke="black" points="304,-147 170,-147 170,-111 304,-111 304,-147"/>
<text text-anchor="middle" x="237" y="-125.3" font-family="Times,serif" font-size="14.00">Log errors per device</text>
</g>
<!-- record_device_output&#45;&gt;parse_device_command_error -->
<g id="edge16" class="edge"><title>record_device_output&#45;&gt;parse_device_command_error</title>
<path fill="none" stroke="black" d="M224.115,-183.813C226.057,-175.702 228.42,-165.836 230.589,-156.777"/>
<polygon fill="black" stroke="black" points="233.998,-157.569 232.923,-147.029 227.19,-155.939 233.998,-157.569"/>
</g>
<!-- job_report -->
<g id="node15" class="node"><title>job_report</title>
<path fill="none" stroke="black" d="M505.5,-74C505.5,-74 106.5,-74 106.5,-74 100.5,-74 94.5,-68 94.5,-62 94.5,-62 94.5,-50 94.5,-50 94.5,-44 100.5,-38 106.5,-38 106.5,-38 505.5,-38 505.5,-38 511.5,-38 517.5,-44 517.5,-50 517.5,-50 517.5,-62 517.5,-62 517.5,-68 511.5,-74 505.5,-74"/>
<text text-anchor="middle" x="306" y="-52.3" font-family="Times,serif" font-size="14.00">Report devices connected to, log file locations and devices that had errors.</text>
</g>
<!-- parse_device_command_error&#45;&gt;job_report -->
<g id="edge17" class="edge"><title>parse_device_command_error&#45;&gt;job_report</title>
<path fill="none" stroke="black" d="M253.703,-110.813C262.263,-102.005 272.836,-91.125 282.231,-81.4584"/>
<polygon fill="black" stroke="black" points="284.991,-83.6395 289.451,-74.0288 279.971,-78.7609 284.991,-83.6395"/>
</g>
<!-- exit&#45;&gt;job_report -->
<g id="edge18" class="edge"><title>exit&#45;&gt;job_report</title>
<path fill="none" stroke="black" d="M351.155,-256.972C342.696,-219.511 322.411,-129.676 312.156,-84.2642"/>
<polygon fill="black" stroke="black" points="315.512,-83.2323 309.895,-74.2488 308.684,-84.7741 315.512,-83.2323"/>
</g>
</g>
</svg>
